<?xml version="1.0" encoding="utf-8"?>
<!-- Generator: Adobe Illustrator 27.9.0, SVG Export Plug-In . SVG Version: 6.00 Build 0)  -->
<svg version="1.1" id="Layer_1" xmlns="http://www.w3.org/2000/svg" xmlns:xlink="http://www.w3.org/1999/xlink" x="0px" y="0px"
	 viewBox="0 0 140.2 55.3" style="enable-background:new 0 0 140.2 55.3;" xml:space="preserve">
<style type="text/css">
	.st0{fill-rule:evenodd;clip-rule:evenodd;fill:#CEE72E;}
	.st1{fill:#FFFFFF;}
</style>
<path class="st0" d="M63.7,4.8c1.9,0.8,3.7,1.6,5.3,2.9c0.6,0.5,1.1,1,1.6,2C69.2,9,68.1,8.4,67,7.8c-1-0.6-2-1.1-3.1-1.4
	C63,6.1,62.1,5.9,61.5,5c0-0.2,0-0.4,0-0.6c0.3,0,0.6,0,1,0C62.8,4.7,63.2,4.7,63.7,4.8z"/>
<path class="st0" d="M59,17.8c0.4,0.7,0.4,1.3-0.4,1.7c-0.5,0.3-0.8,0.7-0.7,1.3c0.1,0.9-0.2,1.4-1,1.8c-0.6,0.3-0.9,0.9-0.9,1.6
	c0,2.5-0.3,4.9,0.5,7.4c0,0.1,0,0.2,0,0.2c1.1,2.1,1.5,4.6,3.7,6c0.7,0.5,1.3,1.1,1.6,2c-0.5,0.5-0.3,1.3-0.8,1.9
	c-0.8,1.1-1.8,1.3-2.9,1.5c-1.1,0.1-2.2-0.2-3.4,0.1c-0.2,0.3,0.3,0.6,0.3,1c-1.1-0.2-2.1-0.5-3.3-0.8c0.3,1,1.2,1.2,1.8,1.9
	c-1,0.1-1.6-0.5-2.4-0.5c-0.1-0.1-0.2-0.2-0.3,0c0,0,0.1,0.1,0.2,0.1c0.8,1.2,2.1,1.8,3.5,2.1c0.9,0.3,1.9,0.5,2.8,0.8
	c-1.8,0.1-3.4-0.6-5.3-1.2c1.6,2.5,4.3,3.1,6.3,4.7c-3.6-0.5-7.1-1.2-9.9-3.6c-0.3-0.3-0.6-0.6-0.9-1l0,0c1-0.1,1.6,0.7,2.6,0.8
	c0.2,0.1,0.3,0.2,0.5,0c-0.1-0.1-0.2-0.2-0.3-0.3c-1.5-1.1-1.5-1.1-2-2.2c1,0,1.7,0.7,2.6,0.8c0.1,0,0.2,0,0.3,0
	c0-0.1-0.1-0.2-0.1-0.3c-1.1-1.7-2-3.5-2.5-5.4c-0.1-0.3-0.3-0.5-0.4-0.7c-2.7-5.1-1.8-10,0.9-14.8c0.5-0.9,1-1.7,1.4-2.6
	c0.5-0.8,1-1.6,1.7-2.3c0.6-0.6,1.2-1.3,1.2-2.2c0.1-0.4,0.1-0.8-0.1-1c-0.8-0.8-0.3-1.4,0.3-1.9c1-0.9,1.6-2.3,3.2-2.4
	c0.1,0.1,0.1,0.1,0.2,0.2c0.3,0.6,0.5,1.2,0.8,1.8c0.3,0.6,0.6,1,0.3,1.8C57.7,17,58.5,17.4,59,17.8z"/>
<path class="st0" d="M61.1,7c0.3-0.1,0.6-0.3,1-0.4c0.4-0.2,0.8-0.1,1.2,0c1.4,0.4,2.6,1.1,3.8,1.7c0.2,0.2,0.3,0.4,0.6,0.7
	c-1.9,0.3-3.1-1.5-4.9-1.4c0.1,0.8,1.1,0.7,1.2,1.4c-2.1,0-4-1.1-6.2-1C58.1,9,59,8.8,59.5,9.3c-0.2,0.5-0.7,0.5-1.2,0.7
	c-0.6,0.2-0.9,0.1-0.9-0.6c0.1-0.5,0.1-1-0.4-1.2c0.8,0,0.9-1.3,1.9-1.2C59.3,7,59.8,7,60.2,7c0.4,0.7,1.2,0.5,1.8,0.8
	c0.1,0,0.2-0.1,0.3-0.1c0-0.2-0.1-0.2-0.3-0.2C61.8,7.1,61.2,7.4,61.1,7z"/>
<path class="st0" d="M47.6,47c0,0-0.1-0.1-0.1-0.1C47.6,46.8,47.7,46.8,47.6,47L47.6,47z"/>
<g>
	<path class="st1" d="M1.9,35.5l1.2-1.6c0.9-1.2,2.3-3.1,4-5.6c1.1-1.6,1.9-2.9,2.6-3.9c0.8-1.2,1.4-2.1,1.8-2.8l0.4-0.6l1,0.1
		c0.4,0,0.9,0,1.6-0.1l0,0.8c0,0.2,0.1,1.3,0.3,3.5c0.1,1,0.1,2,0.1,3c0,1.1,0.1,2.1,0.2,3.1c0,0.1,0.1,0.9,0.4,2.3
		c0,0.3,0.1,0.6,0.1,0.9c0,0.2,0.1,0.5,0.2,0.9l-1.2,0c-0.2,0-0.5,0-1,0.1c-0.5,0-0.9,0-1.2,0l0-1v-1l-0.1-2.9h-1.9H9.7H7.3
		c0,0-0.3,0.5-0.9,1.4c-0.4,0.6-0.7,1.1-1.1,1.7l-1.1,1.7l-0.7,0c-0.2,0-0.4,0-0.6,0C2.6,35.4,2.3,35.5,1.9,35.5z M11.7,23.9L8,29.2
		l2.5,0h1.5L11.7,23.9z"/>
	<path class="st1" d="M16.5,35.5l1.3-4.4c0.3-1,0.6-1.9,0.8-2.9c0.2-0.7,0.4-1.6,0.7-2.8c0.2-0.8,0.4-1.6,0.6-2.5
		c0.2-0.9,0.3-1.5,0.4-1.8l1.2,0.1c0.3,0,0.5,0,0.7,0c0.8-0.1,1.3-0.1,1.4-0.1c-0.6,1.8-1.1,3.3-1.4,4.4c-0.6,2.2-1.3,4.6-1.9,7.2
		l-0.3,1.4h0.3c0.3,0,0.6,0,1,0s0.7,0,0.9,0l2.6-0.3c-0.1,0.4-0.2,0.7-0.3,0.8c-0.1,0.2-0.1,0.4-0.1,0.5c0,0.2-0.1,0.3-0.1,0.4
		l-3.5-0.1h-2.4L16.5,35.5z"/>
	<path class="st1" d="M22.6,37.4l0.3,0c0.5,0,0.9-0.1,1.3-0.4s0.7-0.6,1-1.2c0.3-0.5,0.6-1.4,0.9-2.7l1-3.9l0.9-3.6l0.1-0.4
		c0.3-1.1,0.6-2.6,1-4.4c0.3,0,0.6,0,0.9,0.1c0.2,0,0.5,0,0.8,0c0.2,0,0.4,0,0.8,0c0.4,0,0.6,0,0.8,0c-0.7,2.2-1.1,3.6-1.3,4.4
		l-0.8,2.8l-0.6,2.3l-0.5,2.1L28.8,34c-0.5,1.9-1.7,3.2-3.5,4.1c-0.4,0.2-0.8,0.4-1.2,0.5c-0.4,0.1-0.9,0.2-1.4,0.2l0-0.4
		C22.7,38.1,22.7,37.8,22.6,37.4z"/>
	<path class="st1" d="M34.4,21l1.2,0.1c0.2,0,0.5,0,0.9-0.1c0.4,0,0.8-0.1,1.2-0.1c-0.2,0.6-0.5,1.3-0.8,2.2
		c-0.3,0.9-0.5,1.6-0.7,2.2l-0.3,1l-0.7,2.5L34.9,31c-0.1,0.4-0.2,0.7-0.2,0.9c0,1.4,0.9,2.2,2.7,2.2c0.9,0,1.8-0.2,2.7-0.7
		s1.5-1.1,2-2c0.5-0.8,0.9-1.7,1.2-3l0.5-2.1l0.2-0.7l0.1-0.3c0.3-1,0.6-2.4,1-4.3l0.5,0c0.3,0,0.7,0,1.3-0.1
		c-0.4,1.1-0.7,2.1-0.9,2.8c0,0.1-0.2,0.7-0.5,1.6l-0.3,0.9l-0.4,1.6l-0.5,2.1c-0.2,0.8-0.5,1.6-0.9,2.2c-0.7,1.1-1.6,1.9-2.8,2.6
		c-1.2,0.7-2.4,1-3.7,1c-1.1,0-2.1-0.3-3.1-0.9c-1-0.6-1.6-1.4-1.9-2.2c-0.1-0.3-0.1-0.7-0.1-1.2c0-0.1,0-0.2,0-0.3
		c0-0.1,0-0.2,0.1-0.4l0.8-2.7l0.4-1.5l0.3-1c0.2-0.6,0.4-1.3,0.5-2C34.1,22.6,34.2,21.9,34.4,21z"/>
</g>
<g>
	<path class="st1" d="M62.8,35.2l1.3-4.3c0.3-1,0.6-1.9,0.8-2.8c0.2-0.7,0.4-1.6,0.7-2.8c0.2-0.8,0.4-1.6,0.6-2.5
		c0.2-0.9,0.3-1.5,0.4-1.8l1.2,0.1c0.3,0,0.5,0,0.7,0c0.8-0.1,1.3-0.1,1.4-0.1c-0.6,1.8-1.1,3.2-1.4,4.3c-0.6,2.1-1.3,4.5-1.9,7.1
		l-0.3,1.3h0.3c0.3,0,0.6,0,1,0c0.4,0,0.7,0,0.9,0l2.6-0.3c-0.1,0.4-0.2,0.6-0.3,0.8c-0.1,0.2-0.1,0.4-0.1,0.5
		c0,0.2-0.1,0.3-0.1,0.4L67,35.1h-2.3L62.8,35.2z"/>
	<path class="st1" d="M71.6,29.8c0.4-1.7,1.2-3,2.4-4c1.3-1,2.7-1.6,4.4-1.6c1.4,0,2.6,0.4,3.4,1.2c0.8,0.8,1.3,1.8,1.3,3.1
		c0,1.8-0.7,3.4-2.1,4.8c-1.4,1.3-3,2-4.9,2c-1.4,0-2.6-0.4-3.4-1.2c-0.9-0.8-1.3-1.8-1.3-3.1c0-0.2,0-0.4,0-0.6
		C71.6,30.2,71.6,30,71.6,29.8z M74.2,31.8v0.4c0.1,0.6,0.3,1,0.7,1.4c0.4,0.4,0.9,0.6,1.5,0.6c0.6,0,1.1-0.2,1.6-0.5
		c0.5-0.3,0.9-0.8,1.2-1.5c0.3-0.7,0.6-1.4,0.8-2.2c0.2-0.8,0.3-1.5,0.3-2.1c0-0.7-0.2-1.3-0.6-1.8c-0.4-0.5-0.9-0.7-1.6-0.7
		c-1.1,0-2,0.6-2.8,1.9c-0.3,0.6-0.6,1.3-0.8,2.2C74.3,30.4,74.2,31.1,74.2,31.8z"/>
	<path class="st1" d="M84.8,34.4c-0.6-0.4-0.9-0.8-0.9-1.4c0-0.3,0.2-0.6,0.5-0.9c0.3-0.3,0.7-0.6,1.2-0.8l0.8-0.3
		c-0.5-0.2-1-0.5-1.2-0.9c-0.3-0.4-0.4-0.9-0.4-1.5c0-1.2,0.5-2.2,1.5-3.1c1-0.9,2.2-1.3,3.6-1.3c0.4,0,1.1,0.1,2.1,0.2
		c0.2,0,0.4,0,0.7,0.1c0.3,0,0.5,0,0.8,0h0.4H94c0.4,0,0.7,0,0.8,0c0.4-0.1,0.8-0.1,1.1-0.1l-0.3,0.8c0,0.1-0.1,0.2-0.1,0.3
		c0,0.1-0.1,0.2-0.1,0.5c-0.5-0.1-0.9-0.1-1.4-0.1H93c0.3,0.3,0.5,0.6,0.6,0.9c0.1,0.3,0.2,0.6,0.2,1c0,1-0.5,2-1.5,2.8
		c-1,0.8-2.2,1.2-3.5,1.2h-0.5L88,31.5l-0.5,0.1l-0.3,0.2c-0.4,0.2-0.7,0.5-0.7,0.7c0,0.2,0,0.3,0.1,0.3s0.2,0.1,0.5,0.1l0.5,0.1
		l0.6-0.1h0.2h1c0.4,0,0.8,0,1.1,0.1c0.7,0.1,1.2,0.4,1.6,0.9s0.6,1.1,0.6,1.8c0,1.2-0.6,2.3-1.9,3.2c-1.3,0.9-2.8,1.3-4.6,1.3
		c-1.4,0-2.4-0.3-3.2-0.8c-0.8-0.5-1.2-1.2-1.2-2.1c0-0.5,0.2-1.1,0.7-1.6C83,35.2,83.8,34.8,84.8,34.4z M86.6,34.9h-1.1
		c-0.5,0.2-0.8,0.6-1.2,1c-0.3,0.4-0.5,0.8-0.5,1.2c0,0.3,0.1,0.6,0.3,1c0.1,0.1,0.2,0.2,0.2,0.3c0.1,0.2,0.3,0.3,0.4,0.4
		c0.4,0.2,1,0.4,1.7,0.4c1,0,1.8-0.2,2.5-0.7c0.7-0.4,1-1,1-1.6c0-0.4-0.1-0.7-0.4-1.1c-0.2-0.3-0.4-0.4-0.6-0.5
		c-0.2-0.1-0.3-0.1-0.5-0.2C88.4,35,88.2,35,88,35L86.6,34.9z M87.3,28.9l0.1,0.3c0.1,0.4,0.2,0.7,0.6,0.9c0.3,0.3,0.7,0.4,1,0.4
		c0.6,0,1.2-0.3,1.6-1c0.4-0.7,0.7-1.5,0.7-2.4c0-0.4-0.2-0.9-0.5-1.2c-0.3-0.4-0.7-0.6-1-0.6c-0.6,0-1.2,0.4-1.7,1.1
		C87.5,27.1,87.3,27.9,87.3,28.9z"/>
	<path class="st1" d="M93.8,35.2c0.4-1.1,0.7-2,0.9-2.7c0.2-0.7,0.4-1.3,0.6-1.9c0.1-0.2,0.1-0.4,0.2-0.6c0.1-0.4,0.2-0.7,0.3-1.1
		c0.2-0.7,0.4-1.6,0.6-2.6c0.2-0.8,0.3-1.4,0.4-1.9c0.2,0,0.4,0.1,0.6,0.1c0.2,0,0.4,0,0.5,0H98c0.4,0,1,0,1.8-0.1
		c-0.4,1.2-0.7,2-0.8,2.6c-0.2,0.5-0.4,1.2-0.6,2l-0.4,1.6c-0.2,0.7-0.4,1.3-0.5,2c-0.2,0.6-0.4,1.5-0.6,2.6l-1.1-0.1
		c-0.4,0-0.7,0-1.1,0C94.4,35.1,94.1,35.2,93.8,35.2z M97.4,21.5c0-0.5,0.2-0.9,0.6-1.2c0.4-0.3,0.8-0.5,1.3-0.5
		c0.4,0,0.7,0.2,0.9,0.5c0.3,0.3,0.4,0.7,0.4,1.1c0,0.5-0.2,0.9-0.5,1.2c-0.4,0.3-0.8,0.5-1.3,0.5c-0.4,0-0.7-0.1-1-0.4
		C97.6,22.3,97.4,21.9,97.4,21.5z"/>
	<path class="st1" d="M98.6,34.4l0.5-0.9c0.1-0.1,0.2-0.3,0.3-0.5c0.1-0.2,0.2-0.4,0.3-0.6l0.2-0.1c0,0.4,0.1,0.7,0.1,0.8
		c0.1,0.3,0.4,0.6,0.7,0.8c0.4,0.2,0.7,0.3,1.1,0.3c0.2,0,0.4,0,0.6-0.1c0.2,0,0.4-0.1,0.6-0.2c1-0.5,1.5-1.1,1.5-1.8
		c0-0.3-0.1-0.5-0.2-0.6c-0.2-0.2-0.5-0.3-0.9-0.5c-1.8-0.7-2.7-1.6-2.7-2.9c0-1,0.4-1.9,1.3-2.7c0.9-0.8,1.9-1.1,3.2-1.1
		c0.2,0,0.5,0,0.7,0c0.2,0,0.5,0.1,0.9,0.2c0.3,0.1,0.6,0.2,0.7,0.2c0.1,0.1,0.5,0.2,1,0.5l-0.6,0.9l-0.6,1.1H107l-0.1-0.7
		c-0.1-0.3-0.3-0.6-0.6-0.8c-0.3-0.2-0.6-0.3-1-0.3c-0.4,0-0.8,0.1-1.2,0.4c-0.8,0.5-1.2,1.1-1.2,1.7c0,0.3,0.1,0.4,0.2,0.6
		c0.1,0.1,0.4,0.3,0.9,0.4c0.3,0.1,0.6,0.2,0.9,0.4c0.4,0.2,0.6,0.3,0.8,0.4c0.3,0.2,0.6,0.5,0.8,0.8c0.2,0.4,0.3,0.8,0.3,1.2
		c0,1.1-0.5,2.1-1.5,2.9c-1,0.8-2.1,1.2-3.5,1.2c-0.5,0-1.1-0.1-1.8-0.2c-0.4-0.1-0.7-0.2-0.8-0.2C99.2,34.8,99,34.6,98.6,34.4z"/>
	<path class="st1" d="M108.9,25.9c0.1-0.3,0.2-0.6,0.3-0.9c0.1-0.2,0.1-0.5,0.2-0.7c0.5,0.1,0.9,0.2,1.4,0.2c0-0.1,0.1-0.2,0.1-0.3
		c0-0.1,0.1-0.2,0.1-0.4c0-0.2,0.1-0.4,0.1-0.6c0.1-0.2,0.1-0.5,0.2-0.8c0.3-0.1,0.6-0.2,0.9-0.3c0.3-0.1,0.5-0.2,0.7-0.2
		c0.4-0.1,1-0.4,1.7-0.7l-0.6,1.8l-0.5,1.6c0.6,0,0.9,0,1.1,0c0.5-0.1,0.9-0.1,1.2-0.1c-0.1,0.2-0.1,0.4-0.2,0.6
		c-0.1,0.3-0.2,0.6-0.2,0.9c-0.4,0-0.7,0-0.9,0c-0.8,0-1.3-0.1-1.4-0.1L112,30c-0.2,0.6-0.3,1.2-0.5,1.8c-0.2,0.6-0.2,1-0.2,1.2
		c0,0.6,0.3,0.9,0.9,0.9c0.3,0,0.7-0.1,1.2-0.3l0,0.7l0.1,0.4c-0.5,0.2-1,0.4-1.3,0.5s-0.8,0.1-1.3,0.1c-1.6,0-2.3-0.6-2.3-1.7v-0.2
		l0.1-0.7l0.8-2.8l1.1-4l-0.5,0.1H108.9z"/>
	<path class="st1" d="M113.9,35.2c0.4-1.1,0.7-2,0.9-2.7c0.2-0.7,0.4-1.3,0.6-1.9c0.1-0.2,0.1-0.4,0.2-0.6c0.1-0.4,0.2-0.7,0.3-1.1
		c0.2-0.7,0.4-1.6,0.6-2.6c0.2-0.8,0.3-1.4,0.4-1.9c0.2,0,0.4,0.1,0.6,0.1c0.2,0,0.4,0,0.5,0h0.2c0.4,0,1,0,1.8-0.1
		c-0.4,1.2-0.7,2-0.8,2.6c-0.2,0.5-0.4,1.2-0.6,2l-0.4,1.6c-0.2,0.7-0.4,1.3-0.5,2c-0.2,0.6-0.4,1.5-0.6,2.6l-1.1-0.1
		c-0.4,0-0.7,0-1.1,0C114.5,35.1,114.2,35.2,113.9,35.2z M117.5,21.5c0-0.5,0.2-0.9,0.6-1.2c0.4-0.3,0.8-0.5,1.3-0.5
		c0.4,0,0.7,0.2,0.9,0.5c0.3,0.3,0.4,0.7,0.4,1.1c0,0.5-0.2,0.9-0.5,1.2c-0.4,0.3-0.8,0.5-1.3,0.5c-0.4,0-0.7-0.1-1-0.4
		C117.7,22.3,117.5,21.9,117.5,21.5z"/>
	<path class="st1" d="M130.7,25.8l-0.8,1l-0.8,1.1l-0.3,0c0.1-0.5,0.1-0.8,0.1-1c0-0.5-0.2-0.9-0.5-1.2c-0.3-0.3-0.7-0.4-1.2-0.4
		c-0.5,0-1,0.2-1.6,0.6c-0.6,0.4-1.1,0.9-1.5,1.5c-0.4,0.6-0.7,1.2-0.9,2c-0.2,0.8-0.4,1.5-0.4,2.1c0,0.8,0.2,1.3,0.6,1.7
		c0.4,0.4,1,0.6,1.7,0.6c0.9,0,1.8-0.4,2.8-1.1l0.4,0.3l-0.5,0.8l-0.3,0.7c-0.9,0.4-1.8,0.7-2.9,0.7c-1.5,0-2.7-0.4-3.5-1.1
		S120,32.4,120,31c0-1.8,0.7-3.4,2.1-4.8c1.4-1.3,3-2,4.9-2c1.2,0,2.1,0.3,2.9,0.8C130,25.1,130.3,25.4,130.7,25.8z"/>
	<path class="st1" d="M128.8,34.4l0.5-0.9c0.1-0.1,0.2-0.3,0.3-0.5c0.1-0.2,0.2-0.4,0.3-0.6l0.2-0.1c0,0.4,0.1,0.7,0.1,0.8
		c0.1,0.3,0.4,0.6,0.7,0.8s0.7,0.3,1.1,0.3c0.2,0,0.4,0,0.6-0.1c0.2,0,0.4-0.1,0.6-0.2c1-0.5,1.5-1.1,1.5-1.8c0-0.3-0.1-0.5-0.2-0.6
		c-0.2-0.2-0.5-0.3-0.9-0.5c-1.8-0.7-2.7-1.6-2.7-2.9c0-1,0.4-1.9,1.3-2.7c0.9-0.8,1.9-1.1,3.2-1.1c0.2,0,0.5,0,0.7,0
		c0.2,0,0.5,0.1,0.9,0.2c0.3,0.1,0.6,0.2,0.7,0.2c0.1,0.1,0.5,0.2,1,0.5l-0.6,0.9l-0.6,1.1h-0.1l-0.1-0.7c-0.1-0.3-0.3-0.6-0.6-0.8
		c-0.3-0.2-0.6-0.3-1-0.3c-0.4,0-0.8,0.1-1.2,0.4c-0.8,0.5-1.2,1.1-1.2,1.7c0,0.3,0.1,0.4,0.2,0.6c0.1,0.1,0.4,0.3,0.9,0.4
		c0.3,0.1,0.6,0.2,0.9,0.4c0.4,0.2,0.6,0.3,0.8,0.4c0.3,0.2,0.6,0.5,0.8,0.8c0.2,0.4,0.3,0.8,0.3,1.2c0,1.1-0.5,2.1-1.5,2.9
		c-1,0.8-2.1,1.2-3.5,1.2c-0.5,0-1.1-0.1-1.8-0.2c-0.4-0.1-0.7-0.2-0.8-0.2C129.4,34.8,129.2,34.6,128.8,34.4z"/>
</g>
</svg>
